   <svg width="827" height="1167" viewBox="0 0 827 1167" fill="none" xmlns="http://www.w3.org/2000/svg">
<path d="M438.125 780.294L93.6584 509.253L791.891 521.508L438.125 780.294Z" fill="#54483D"/>
<path d="M441.922 616.933L94.6078 508.162L792.84 520.418L441.922 616.933Z" fill="#456F51"/>
<path d="M393.6 786.716L0.876325 592.067L686.786 460.889L393.6 786.716Z" fill="#755A42"/>
<path d="M367.117 655.085L0.758474 596.631L682.513 459.736L367.117 655.085Z" fill="#60916A"/>
<path d="M586.103 753.268L309.303 639.525L790.336 534.534L586.103 753.268Z" fill="#735B37"/>
<path d="M568.514 693.426L304.867 637.084L786.473 534.752L568.514 693.426Z" fill="#4E8D5C"/>
<path d="M462.398 685.585L163.791 665.855L586.394 413.223L462.398 685.585Z" fill="#8C7046"/>
<path d="M429.183 635.64L161.487 667.619L584.09 414.987L429.183 635.64Z" fill="#407A4D"/>
<path d="M311.277 779.115L101.219 664.604L446.072 581.459L311.277 779.115Z" fill="#816A48"/>
<path d="M295.449 727.466L97.2615 662.192L442.115 579.047L295.449 727.466Z" fill="#476F50"/>
<rect x="437" width="29" height="525" fill="#69BEBE"/>
<rect x="268" y="642" width="29" height="525" fill="#69BEBE"/>
<rect x="268" y="642.492" width="229.309" height="23.1701" transform="rotate(-36.5293 268 642.492)" fill="#69BEBE"/>
<rect x="443" y="9" width="7" height="379" fill="#FDFDFD"/>
<rect x="443" y="9" width="7" height="379" fill="#FDFDFD"/>
<rect x="443" y="9" width="7" height="379" fill="#FDFDFD"/>
<rect x="443" y="9" width="7" height="379" fill="#FDFDFD"/>
<rect x="274" y="655" width="7" height="367" fill="#FDFDFD"/>
<rect x="274" y="655" width="7" height="367" fill="#FDFDFD"/>
<rect x="274" y="655" width="7" height="367" fill="#FDFDFD"/>
<rect x="274" y="655" width="7" height="367" fill="#FDFDFD"/>
</svg>