<svg width="1132" height="359" viewBox="0 0 1132 359" fill="none" xmlns="http://www.w3.org/2000/svg">
<g filter="url(#filter0_dd)">
<path d="M536.343 147.207C559.198 147.207 577.725 128.848 577.725 106.202C577.725 83.5558 559.198 65.1974 536.343 65.1974C513.488 65.1974 494.96 83.5558 494.96 106.202C494.96 128.848 513.488 147.207 536.343 147.207Z" fill="#C4C4C4"/>
<path d="M548.757 208.367C571.503 208.367 589.942 190.008 589.942 167.362C589.942 144.716 571.503 126.357 548.757 126.357C526.011 126.357 507.572 144.716 507.572 167.362C507.572 190.008 526.011 208.367 548.757 208.367Z" fill="#C4C4C4"/>
<path d="M598.022 153.23C620.768 153.23 639.207 134.768 639.207 111.994C639.207 89.2198 620.768 70.7577 598.022 70.7577C575.276 70.7577 556.837 89.2198 556.837 111.994C556.837 134.768 575.276 153.23 598.022 153.23Z" fill="#C4C4C4"/>
<path d="M614.575 198.637C637.321 198.637 655.76 180.278 655.76 157.632C655.76 134.986 637.321 116.627 614.575 116.627C591.829 116.627 573.39 134.986 573.39 157.632C573.39 180.278 591.829 198.637 614.575 198.637Z" fill="#C4C4C4"/>
<path d="M672.511 147.207C695.257 147.207 713.696 128.848 713.696 106.202C713.696 83.5558 695.257 65.1974 672.511 65.1974C649.765 65.1974 631.326 83.5558 631.326 106.202C631.326 128.848 649.765 147.207 672.511 147.207Z" fill="#C4C4C4"/>
<path d="M672.511 208.367C695.257 208.367 713.696 190.008 713.696 167.362C713.696 144.716 695.257 126.357 672.511 126.357C649.765 126.357 631.326 144.716 631.326 167.362C631.326 190.008 649.765 208.367 672.511 208.367Z" fill="#C4C4C4"/>
<path d="M507.375 183.81C530.121 183.81 548.56 165.451 548.56 142.805C548.56 120.159 530.121 101.8 507.375 101.8C484.629 101.8 466.19 120.159 466.19 142.805C466.19 165.451 484.629 183.81 507.375 183.81Z" fill="#C4C4C4"/>
</g>
<g filter="url(#filter1_d)">
<path d="M828.976 254.968C851.831 254.968 870.359 236.609 870.359 213.963C870.359 191.317 851.831 172.958 828.976 172.958C806.121 172.958 787.594 191.317 787.594 213.963C787.594 236.609 806.121 254.968 828.976 254.968Z" fill="#EBEBEB"/>
<path d="M841.391 316.128C864.137 316.128 882.576 297.769 882.576 275.123C882.576 252.477 864.137 234.118 841.391 234.118C818.645 234.118 800.206 252.477 800.206 275.123C800.206 297.769 818.645 316.128 841.391 316.128Z" fill="#EBEBEB"/>
<path d="M890.656 260.991C913.402 260.991 931.841 242.529 931.841 219.755C931.841 196.981 913.402 178.519 890.656 178.519C867.91 178.519 849.471 196.981 849.471 219.755C849.471 242.529 867.91 260.991 890.656 260.991Z" fill="#EBEBEB"/>
<path d="M907.208 306.398C929.954 306.398 948.393 288.039 948.393 265.393C948.393 242.747 929.954 224.388 907.208 224.388C884.462 224.388 866.023 242.747 866.023 265.393C866.023 288.039 884.462 306.398 907.208 306.398Z" fill="#EBEBEB"/>
<path d="M965.144 254.968C987.89 254.968 1006.33 236.609 1006.33 213.963C1006.33 191.317 987.89 172.958 965.144 172.958C942.398 172.958 923.959 191.317 923.959 213.963C923.959 236.609 942.398 254.968 965.144 254.968Z" fill="#EBEBEB"/>
<path d="M965.144 316.128C987.89 316.128 1006.33 297.769 1006.33 275.123C1006.33 252.477 987.89 234.118 965.144 234.118C942.398 234.118 923.959 252.477 923.959 275.123C923.959 297.769 942.398 316.128 965.144 316.128Z" fill="#EBEBEB"/>
<path d="M800.008 291.571C822.754 291.571 841.193 273.212 841.193 250.566C841.193 227.92 822.754 209.561 800.008 209.561C777.262 209.561 758.823 227.92 758.823 250.566C758.823 273.212 777.262 291.571 800.008 291.571Z" fill="#EBEBEB"/>
</g>
<g filter="url(#filter2_dd)">
<path d="M300.068 139.267C322.923 139.267 341.451 120.908 341.451 98.2621C341.451 75.6159 322.923 57.2575 300.068 57.2575C277.213 57.2575 258.685 75.6159 258.685 98.2621C258.685 120.908 277.213 139.267 300.068 139.267Z" fill="#C4C4C4"/>
<path d="M292.186 206.665C314.932 206.665 333.371 188.306 333.371 165.66C333.371 143.014 314.932 124.655 292.186 124.655C269.44 124.655 251.001 143.014 251.001 165.66C251.001 188.306 269.44 206.665 292.186 206.665Z" fill="#C4C4C4"/>
<path d="M341.451 151.528C364.197 151.528 382.636 133.066 382.636 110.292C382.636 87.5178 364.197 69.0557 341.451 69.0557C318.705 69.0557 300.266 87.5178 300.266 110.292C300.266 133.066 318.705 151.528 341.451 151.528Z" fill="#C4C4C4"/>
<path d="M358.004 196.935C380.75 196.935 399.189 178.576 399.189 155.93C399.189 133.284 380.75 114.925 358.004 114.925C335.258 114.925 316.819 133.284 316.819 155.93C316.819 178.576 335.258 196.935 358.004 196.935Z" fill="#C4C4C4"/>
<path d="M422.836 173.297C445.582 173.297 464.021 154.938 464.021 132.292C464.021 109.646 445.582 91.2874 422.836 91.2874C400.09 91.2874 381.651 109.646 381.651 132.292C381.651 154.938 400.09 173.297 422.836 173.297Z" fill="#C4C4C4"/>
<path d="M415.939 206.665C438.685 206.665 457.124 188.306 457.124 165.66C457.124 143.014 438.685 124.655 415.939 124.655C393.193 124.655 374.754 143.014 374.754 165.66C374.754 188.306 393.193 206.665 415.939 206.665Z" fill="#C4C4C4"/>
<path d="M250.804 182.109C273.55 182.109 291.989 163.75 291.989 141.104C291.989 118.458 273.55 100.099 250.804 100.099C228.058 100.099 209.619 118.458 209.619 141.104C209.619 163.75 228.058 182.109 250.804 182.109Z" fill="#C4C4C4"/>
</g>
<g filter="url(#filter3_d)">
<path d="M638.419 238.947C661.274 238.947 679.802 220.588 679.802 197.942C679.802 175.296 661.274 156.937 638.419 156.937C615.564 156.937 597.036 175.296 597.036 197.942C597.036 220.588 615.564 238.947 638.419 238.947Z" fill="#C4C4C4"/>
<path d="M650.834 300.106C673.58 300.106 692.019 281.747 692.019 259.101C692.019 236.455 673.58 218.096 650.834 218.096C628.088 218.096 609.649 236.455 609.649 259.101C609.649 281.747 628.088 300.106 650.834 300.106Z" fill="#C4C4C4"/>
<path d="M700.099 244.969C722.845 244.969 741.284 226.507 741.284 203.733C741.284 180.959 722.845 162.497 700.099 162.497C677.353 162.497 658.914 180.959 658.914 203.733C658.914 226.507 677.353 244.969 700.099 244.969Z" fill="#C4C4C4"/>
<path d="M716.652 290.376C739.398 290.376 757.837 272.017 757.837 249.371C757.837 226.725 739.398 208.366 716.652 208.366C693.906 208.366 675.467 226.725 675.467 249.371C675.467 272.017 693.906 290.376 716.652 290.376Z" fill="#C4C4C4"/>
<path d="M774.587 238.947C797.333 238.947 815.772 220.588 815.772 197.942C815.772 175.296 797.333 156.937 774.587 156.937C751.841 156.937 733.402 175.296 733.402 197.942C733.402 220.588 751.841 238.947 774.587 238.947Z" fill="#C4C4C4"/>
<path d="M774.587 300.106C797.333 300.106 815.772 281.747 815.772 259.101C815.772 236.455 797.333 218.096 774.587 218.096C751.841 218.096 733.402 236.455 733.402 259.101C733.402 281.747 751.841 300.106 774.587 300.106Z" fill="#C4C4C4"/>
<path d="M609.452 275.55C632.198 275.55 650.637 257.191 650.637 234.545C650.637 211.899 632.198 193.54 609.452 193.54C586.706 193.54 568.267 211.899 568.267 234.545C568.267 257.191 586.706 275.55 609.452 275.55Z" fill="#C4C4C4"/>
</g>
<g filter="url(#filter4_d)">
<path d="M381.848 237.245C404.703 237.245 423.23 218.886 423.23 196.24C423.23 173.594 404.703 155.235 381.848 155.235C358.993 155.235 340.465 173.594 340.465 196.24C340.465 218.886 358.993 237.245 381.848 237.245Z" fill="#C4C4C4"/>
<path d="M394.263 298.405C417.009 298.405 435.448 280.046 435.448 257.4C435.448 234.754 417.009 216.395 394.263 216.395C371.517 216.395 353.078 234.754 353.078 257.4C353.078 280.046 371.517 298.405 394.263 298.405Z" fill="#C4C4C4"/>
<path d="M443.528 243.268C466.274 243.268 484.713 224.806 484.713 202.032C484.713 179.258 466.274 160.796 443.528 160.796C420.782 160.796 402.343 179.258 402.343 202.032C402.343 224.806 420.782 243.268 443.528 243.268Z" fill="#C4C4C4"/>
<path d="M460.081 288.675C482.827 288.675 501.266 270.316 501.266 247.67C501.266 225.024 482.827 206.665 460.081 206.665C437.335 206.665 418.896 225.024 418.896 247.67C418.896 270.316 437.335 288.675 460.081 288.675Z" fill="#C4C4C4"/>
<path d="M518.016 237.245C540.762 237.245 559.201 218.886 559.201 196.24C559.201 173.594 540.762 155.235 518.016 155.235C495.27 155.235 476.831 173.594 476.831 196.24C476.831 218.886 495.27 237.245 518.016 237.245Z" fill="#C4C4C4"/>
<path d="M518.016 298.405C540.762 298.405 559.201 280.046 559.201 257.4C559.201 234.754 540.762 216.395 518.016 216.395C495.27 216.395 476.831 234.754 476.831 257.4C476.831 280.046 495.27 298.405 518.016 298.405Z" fill="#C4C4C4"/>
<path d="M352.88 273.848C375.626 273.848 394.065 255.489 394.065 232.843C394.065 210.197 375.626 191.838 352.88 191.838C330.134 191.838 311.695 210.197 311.695 232.843C311.695 255.489 330.134 273.848 352.88 273.848Z" fill="#C4C4C4"/>
</g>
<g filter="url(#filter5_dd)">
<path d="M552.462 166.293C570.04 166.293 584.29 151.856 584.29 134.047C584.29 116.238 570.04 101.801 552.462 101.801C534.884 101.801 520.634 116.238 520.634 134.047C520.634 151.856 534.884 166.293 552.462 166.293Z" fill="#BCBCBC"/>
<path d="M562.011 214.389C579.505 214.389 593.687 199.952 593.687 182.143C593.687 164.334 579.505 149.897 562.011 149.897C544.517 149.897 530.335 164.334 530.335 182.143C530.335 199.952 544.517 214.389 562.011 214.389Z" fill="#BCBCBC"/>
<path d="M599.901 171.031C617.395 171.031 631.577 156.512 631.577 138.602C631.577 120.692 617.395 106.173 599.901 106.173C582.407 106.173 568.225 120.692 568.225 138.602C568.225 156.512 582.407 171.031 599.901 171.031Z" fill="#BCBCBC"/>
<path d="M612.632 206.738C630.126 206.738 644.308 192.301 644.308 174.492C644.308 156.683 630.126 142.246 612.632 142.246C595.138 142.246 580.956 156.683 580.956 174.492C580.956 192.301 595.138 206.738 612.632 206.738Z" fill="#BCBCBC"/>
<path d="M657.19 166.293C674.684 166.293 688.866 151.856 688.866 134.047C688.866 116.238 674.684 101.801 657.19 101.801C639.696 101.801 625.514 116.238 625.514 134.047C625.514 151.856 639.696 166.293 657.19 166.293Z" fill="#BCBCBC"/>
<path d="M657.19 214.389C674.684 214.389 688.866 199.952 688.866 182.143C688.866 164.334 674.684 149.897 657.19 149.897C639.696 149.897 625.514 164.334 625.514 182.143C625.514 199.952 639.696 214.389 657.19 214.389Z" fill="#BCBCBC"/>
<path d="M530.183 195.078C547.677 195.078 561.859 180.641 561.859 162.832C561.859 145.023 547.677 130.586 530.183 130.586C512.689 130.586 498.507 145.023 498.507 162.832C498.507 180.641 512.689 195.078 530.183 195.078Z" fill="#BCBCBC"/>
</g>
<g filter="url(#filter6_d)">
<path d="M842.303 280.211C858.971 280.211 872.483 264.395 872.483 244.886C872.483 225.377 858.971 209.561 842.303 209.561C825.635 209.561 812.123 225.377 812.123 244.886C812.123 264.395 825.635 280.211 842.303 280.211Z" fill="#BCBCBC"/>
<path d="M851.357 332.899C867.946 332.899 881.394 317.083 881.394 297.574C881.394 278.065 867.946 262.249 851.357 262.249C834.768 262.249 821.321 278.065 821.321 297.574C821.321 317.083 834.768 332.899 851.357 332.899Z" fill="#BCBCBC"/>
<path d="M887.286 285.399C903.875 285.399 917.323 269.494 917.323 249.875C917.323 230.256 903.875 214.351 887.286 214.351C870.697 214.351 857.25 230.256 857.25 249.875C857.25 269.494 870.697 285.399 887.286 285.399Z" fill="#BCBCBC"/>
<path d="M899.358 324.517C915.947 324.517 929.395 308.701 929.395 289.192C929.395 269.683 915.947 253.867 899.358 253.867C882.769 253.867 869.322 269.683 869.322 289.192C869.322 308.701 882.769 324.517 899.358 324.517Z" fill="#BCBCBC"/>
<path d="M941.61 280.211C958.199 280.211 971.646 264.395 971.646 244.886C971.646 225.377 958.199 209.561 941.61 209.561C925.021 209.561 911.573 225.377 911.573 244.886C911.573 264.395 925.021 280.211 941.61 280.211Z" fill="#BCBCBC"/>
<path d="M941.61 332.899C958.199 332.899 971.646 317.083 971.646 297.574C971.646 278.065 958.199 262.249 941.61 262.249C925.021 262.249 911.573 278.065 911.573 297.574C911.573 317.083 925.021 332.899 941.61 332.899Z" fill="#BCBCBC"/>
<path d="M821.177 311.744C837.766 311.744 851.214 295.928 851.214 276.419C851.214 256.91 837.766 241.094 821.177 241.094C804.588 241.094 791.141 256.91 791.141 276.419C791.141 295.928 804.588 311.744 821.177 311.744Z" fill="#BCBCBC"/>
</g>
<g filter="url(#filter7_dd)">
<path d="M295.891 164.592C313.469 164.592 327.719 150.155 327.719 132.346C327.719 114.537 313.469 100.1 295.891 100.1C278.313 100.1 264.063 114.537 264.063 132.346C264.063 150.155 278.313 164.592 295.891 164.592Z" fill="#BCBCBC"/>
<path d="M305.439 212.688C322.933 212.688 337.115 198.251 337.115 180.442C337.115 162.633 322.933 148.196 305.439 148.196C287.945 148.196 273.763 162.633 273.763 180.442C273.763 198.251 287.945 212.688 305.439 212.688Z" fill="#BCBCBC"/>
<path d="M343.329 169.329C360.823 169.329 375.005 154.81 375.005 136.9C375.005 118.99 360.823 104.471 343.329 104.471C325.835 104.471 311.653 118.99 311.653 136.9C311.653 154.81 325.835 169.329 343.329 169.329Z" fill="#BCBCBC"/>
<path d="M356.061 205.036C373.555 205.036 387.737 190.599 387.737 172.79C387.737 154.981 373.555 140.544 356.061 140.544C338.567 140.544 324.385 154.981 324.385 172.79C324.385 190.599 338.567 205.036 356.061 205.036Z" fill="#BCBCBC"/>
<path d="M400.619 164.592C418.113 164.592 432.295 150.155 432.295 132.346C432.295 114.537 418.113 100.1 400.619 100.1C383.125 100.1 368.943 114.537 368.943 132.346C368.943 150.155 383.125 164.592 400.619 164.592Z" fill="#BCBCBC"/>
<path d="M400.619 212.688C418.113 212.688 432.295 198.251 432.295 180.442C432.295 162.633 418.113 148.196 400.619 148.196C383.125 148.196 368.943 162.633 368.943 180.442C368.943 198.251 383.125 212.688 400.619 212.688Z" fill="#BCBCBC"/>
<path d="M273.612 193.377C291.106 193.377 305.288 178.94 305.288 161.131C305.288 143.322 291.106 128.885 273.612 128.885C256.118 128.885 241.936 143.322 241.936 161.131C241.936 178.94 256.118 193.377 273.612 193.377Z" fill="#BCBCBC"/>
</g>
<g filter="url(#filter8_dd)">
<path d="M360.527 165.366C378.105 165.366 392.355 150.929 392.355 133.12C392.355 115.311 378.105 100.874 360.527 100.874C342.949 100.874 328.699 115.311 328.699 133.12C328.699 150.929 342.949 165.366 360.527 165.366Z" fill="#7A7A7A"/>
<path d="M370.075 213.463C387.569 213.463 401.751 199.026 401.751 181.217C401.751 163.408 387.569 148.971 370.075 148.971C352.581 148.971 338.399 163.408 338.399 181.217C338.399 199.026 352.581 213.463 370.075 213.463Z" fill="#7A7A7A"/>
<path d="M397.365 157.846C414.859 157.846 429.041 143.327 429.041 125.417C429.041 107.507 414.859 92.9884 397.365 92.9884C379.871 92.9884 365.689 107.507 365.689 125.417C365.689 143.327 379.871 157.846 397.365 157.846Z" fill="#7A7A7A"/>
<path d="M420.696 205.811C438.19 205.811 452.372 191.374 452.372 173.565C452.372 155.756 438.19 141.319 420.696 141.319C403.202 141.319 389.02 155.756 389.02 173.565C389.02 191.374 403.202 205.811 420.696 205.811Z" fill="#7A7A7A"/>
<path d="M413.327 179.6C430.821 179.6 445.003 165.163 445.003 147.354C445.003 129.545 430.821 115.108 413.327 115.108C395.833 115.108 381.651 129.545 381.651 147.354C381.651 165.163 395.833 179.6 413.327 179.6Z" fill="#7A7A7A"/>
<path d="M465.255 213.463C482.749 213.463 496.931 199.026 496.931 181.217C496.931 163.408 482.749 148.971 465.255 148.971C447.761 148.971 433.579 163.408 433.579 181.217C433.579 199.026 447.761 213.463 465.255 213.463Z" fill="#7A7A7A"/>
<path d="M338.247 194.151C355.741 194.151 369.923 179.714 369.923 161.905C369.923 144.096 355.741 129.659 338.247 129.659C320.753 129.659 306.571 144.096 306.571 161.905C306.571 179.714 320.753 194.151 338.247 194.151Z" fill="#7A7A7A"/>
</g>
<g filter="url(#filter9_dd)">
<path d="M103.955 163.665C121.533 163.665 135.783 149.228 135.783 131.419C135.783 113.61 121.533 99.1726 103.955 99.1726C86.3771 99.1726 72.1274 113.61 72.1274 131.419C72.1274 149.228 86.3771 163.665 103.955 163.665Z" fill="#7A7A7A"/>
<path d="M113.504 211.761C130.998 211.761 145.18 197.324 145.18 179.515C145.18 161.706 130.998 147.269 113.504 147.269C96.0098 147.269 81.828 161.706 81.828 179.515C81.828 197.324 96.0098 211.761 113.504 211.761Z" fill="#7A7A7A"/>
<path d="M151.394 168.403C168.888 168.403 183.07 153.884 183.07 135.974C183.07 118.064 168.888 103.545 151.394 103.545C133.9 103.545 119.718 118.064 119.718 135.974C119.718 153.884 133.9 168.403 151.394 168.403Z" fill="#7A7A7A"/>
<path d="M164.125 204.11C181.619 204.11 195.801 189.673 195.801 171.864C195.801 154.055 181.619 139.618 164.125 139.618C146.631 139.618 132.449 154.055 132.449 171.864C132.449 189.673 146.631 204.11 164.125 204.11Z" fill="#7A7A7A"/>
<path d="M208.683 163.665C226.177 163.665 240.359 149.228 240.359 131.419C240.359 113.61 226.177 99.1726 208.683 99.1726C191.189 99.1726 177.007 113.61 177.007 131.419C177.007 149.228 191.189 163.665 208.683 163.665Z" fill="#7A7A7A"/>
<path d="M208.683 211.761C226.177 211.761 240.359 197.324 240.359 179.515C240.359 161.706 226.177 147.269 208.683 147.269C191.189 147.269 177.007 161.706 177.007 179.515C177.007 197.324 191.189 211.761 208.683 211.761Z" fill="#7A7A7A"/>
<path d="M81.676 192.45C99.1702 192.45 113.352 178.013 113.352 160.204C113.352 142.395 99.1702 127.958 81.676 127.958C64.1818 127.958 50 142.395 50 160.204C50 178.013 64.1818 192.45 81.676 192.45Z" fill="#7A7A7A"/>
</g>
<g filter="url(#filter10_d)">
<path d="M745.975 210.773C763.553 210.773 777.803 196.336 777.803 178.527C777.803 160.718 763.553 146.281 745.975 146.281C728.397 146.281 714.147 160.718 714.147 178.527C714.147 196.336 728.397 210.773 745.975 210.773Z" fill="#7A7A7A"/>
<path d="M755.523 258.869C773.017 258.869 787.199 244.432 787.199 226.623C787.199 208.814 773.017 194.377 755.523 194.377C738.029 194.377 723.847 208.814 723.847 226.623C723.847 244.432 738.029 258.869 755.523 258.869Z" fill="#7A7A7A"/>
<path d="M793.413 215.51C810.907 215.51 825.089 200.991 825.089 183.081C825.089 165.171 810.907 150.652 793.413 150.652C775.919 150.652 761.737 165.171 761.737 183.081C761.737 200.991 775.919 215.51 793.413 215.51Z" fill="#7A7A7A"/>
<path d="M806.144 251.217C823.638 251.217 837.82 236.78 837.82 218.971C837.82 201.162 823.638 186.725 806.144 186.725C788.65 186.725 774.468 201.162 774.468 218.971C774.468 236.78 788.65 251.217 806.144 251.217Z" fill="#7A7A7A"/>
<path d="M850.703 210.773C868.197 210.773 882.379 196.336 882.379 178.527C882.379 160.718 868.197 146.281 850.703 146.281C833.209 146.281 819.027 160.718 819.027 178.527C819.027 196.336 833.209 210.773 850.703 210.773Z" fill="#7A7A7A"/>
<path d="M850.703 258.869C868.197 258.869 882.379 244.432 882.379 226.623C882.379 208.814 868.197 194.377 850.703 194.377C833.209 194.377 819.027 208.814 819.027 226.623C819.027 244.432 833.209 258.869 850.703 258.869Z" fill="#7A7A7A"/>
<path d="M723.695 239.558C741.189 239.558 755.371 225.121 755.371 207.312C755.371 189.503 741.189 175.066 723.695 175.066C706.201 175.066 692.019 189.503 692.019 207.312C692.019 225.121 706.201 239.558 723.695 239.558Z" fill="#7A7A7A"/>
</g>
<g filter="url(#filter11_dd)">
<path d="M771.828 145.735C806.437 145.735 834.493 123.77 834.493 96.6752C834.493 69.5804 806.437 47.6157 771.828 47.6157C737.219 47.6157 709.163 69.5804 709.163 96.6752C709.163 123.77 737.219 145.735 771.828 145.735Z" fill="#C5C5C5"/>
<path d="M755.341 204.868C778.16 204.868 796.658 187.103 796.658 165.19C796.658 143.277 778.16 125.512 755.341 125.512C732.522 125.512 714.024 143.277 714.024 165.19C714.024 187.103 732.522 204.868 755.341 204.868Z" fill="#C5C5C5"/>
<path d="M804.763 151.516C827.582 151.516 846.08 133.651 846.08 111.614C846.08 89.5768 827.582 71.7122 804.763 71.7122C781.944 71.7122 763.446 89.5768 763.446 111.614C763.446 133.651 781.944 151.516 804.763 151.516Z" fill="#C5C5C5"/>
<path d="M821.369 195.453C844.188 195.453 862.686 177.688 862.686 155.775C862.686 133.862 844.188 116.097 821.369 116.097C798.55 116.097 780.052 133.862 780.052 155.775C780.052 177.688 798.55 195.453 821.369 195.453Z" fill="#C5C5C5"/>
<path d="M879.489 145.688C902.307 145.688 920.806 127.923 920.806 106.01C920.806 84.0967 902.307 66.3324 879.489 66.3324C856.67 66.3324 838.172 84.0967 838.172 106.01C838.172 127.923 856.67 145.688 879.489 145.688Z" fill="#C5C5C5"/>
<path d="M879.489 204.868C902.307 204.868 920.806 187.103 920.806 165.19C920.806 143.277 902.307 125.512 879.489 125.512C856.67 125.512 838.172 143.277 838.172 165.19C838.172 187.103 856.67 204.868 879.489 204.868Z" fill="#C5C5C5"/>
<path d="M713.827 181.106C736.646 181.106 755.144 163.341 755.144 141.428C755.144 119.515 736.646 101.75 713.827 101.75C691.008 101.75 672.51 119.515 672.51 141.428C672.51 163.341 691.008 181.106 713.827 181.106Z" fill="#C5C5C5"/>
</g>
<g filter="url(#filter12_d)">
<path d="M489.404 209.071C506.982 209.071 521.232 194.634 521.232 176.825C521.232 159.016 506.982 144.579 489.404 144.579C471.826 144.579 457.576 159.016 457.576 176.825C457.576 194.634 471.826 209.071 489.404 209.071Z" fill="#7A7A7A"/>
<path d="M498.952 257.168C516.446 257.168 530.628 242.731 530.628 224.922C530.628 207.113 516.446 192.676 498.952 192.676C481.458 192.676 467.276 207.113 467.276 224.922C467.276 242.731 481.458 257.168 498.952 257.168Z" fill="#7A7A7A"/>
<path d="M536.842 213.809C554.336 213.809 568.518 199.29 568.518 181.38C568.518 163.47 554.336 148.951 536.842 148.951C519.348 148.951 505.166 163.47 505.166 181.38C505.166 199.29 519.348 213.809 536.842 213.809Z" fill="#7A7A7A"/>
<path d="M549.573 249.516C567.067 249.516 581.249 235.079 581.249 217.27C581.249 199.461 567.067 185.024 549.573 185.024C532.079 185.024 517.897 199.461 517.897 217.27C517.897 235.079 532.079 249.516 549.573 249.516Z" fill="#7A7A7A"/>
<path d="M568.216 217.6C585.71 217.6 599.892 203.163 599.892 185.354C599.892 167.545 585.71 153.108 568.216 153.108C550.722 153.108 536.54 167.545 536.54 185.354C536.54 203.163 550.722 217.6 568.216 217.6Z" fill="#7A7A7A"/>
<path d="M594.131 257.168C611.625 257.168 625.807 242.731 625.807 224.922C625.807 207.113 611.625 192.676 594.131 192.676C576.637 192.676 562.455 207.113 562.455 224.922C562.455 242.731 576.637 257.168 594.131 257.168Z" fill="#7A7A7A"/>
<path d="M467.124 237.856C484.618 237.856 498.8 223.419 498.8 205.61C498.8 187.801 484.618 173.364 467.124 173.364C449.63 173.364 435.448 187.801 435.448 205.61C435.448 223.419 449.63 237.856 467.124 237.856Z" fill="#7A7A7A"/>
</g>
<g filter="url(#filter13_d)">
<path d="M371.168 263.129C388.746 263.129 402.996 248.692 402.996 230.883C402.996 213.074 388.746 198.637 371.168 198.637C353.59 198.637 339.34 213.074 339.34 230.883C339.34 248.692 353.59 263.129 371.168 263.129Z" fill="#F9F9F9"/>
<path d="M380.716 311.225C398.21 311.225 412.392 296.788 412.392 278.979C412.392 261.17 398.21 246.733 380.716 246.733C363.222 246.733 349.04 261.17 349.04 278.979C349.04 296.788 363.222 311.225 380.716 311.225Z" fill="#F9F9F9"/>
<path d="M418.606 267.866C436.1 267.866 450.282 253.347 450.282 235.437C450.282 217.527 436.1 203.008 418.606 203.008C401.112 203.008 386.93 217.527 386.93 235.437C386.93 253.347 401.112 267.866 418.606 267.866Z" fill="#F9F9F9"/>
<path d="M431.337 303.574C448.831 303.574 463.013 289.137 463.013 271.328C463.013 253.519 448.831 239.082 431.337 239.082C413.843 239.082 399.661 253.519 399.661 271.328C399.661 289.137 413.843 303.574 431.337 303.574Z" fill="#F9F9F9"/>
<path d="M475.896 263.129C493.39 263.129 507.572 248.692 507.572 230.883C507.572 213.074 493.39 198.637 475.896 198.637C458.402 198.637 444.22 213.074 444.22 230.883C444.22 248.692 458.402 263.129 475.896 263.129Z" fill="#F9F9F9"/>
<path d="M475.896 311.225C493.39 311.225 507.572 296.788 507.572 278.979C507.572 261.17 493.39 246.733 475.896 246.733C458.402 246.733 444.22 261.17 444.22 278.979C444.22 296.788 458.402 311.225 475.896 311.225Z" fill="#F9F9F9"/>
<path d="M348.889 291.914C366.383 291.914 380.565 277.477 380.565 259.668C380.565 241.859 366.383 227.422 348.889 227.422C331.395 227.422 317.213 241.859 317.213 259.668C317.213 277.477 331.395 291.914 348.889 291.914Z" fill="#F9F9F9"/>
</g>
<g filter="url(#filter14_d)">
<path d="M114.597 261.427C132.175 261.427 146.425 246.99 146.425 229.181C146.425 211.372 132.175 196.935 114.597 196.935C97.0191 196.935 82.7694 211.372 82.7694 229.181C82.7694 246.99 97.0191 261.427 114.597 261.427Z" fill="#F9F9F9"/>
<path d="M124.145 309.524C141.639 309.524 155.821 295.087 155.821 277.278C155.821 259.469 141.639 245.032 124.145 245.032C106.651 245.032 92.469 259.469 92.469 277.278C92.469 295.087 106.651 309.524 124.145 309.524Z" fill="#F9F9F9"/>
<path d="M162.035 266.165C179.529 266.165 193.711 251.646 193.711 233.736C193.711 215.826 179.529 201.307 162.035 201.307C144.541 201.307 130.359 215.826 130.359 233.736C130.359 251.646 144.541 266.165 162.035 266.165Z" fill="#F9F9F9"/>
<path d="M174.766 301.872C192.26 301.872 206.442 287.435 206.442 269.626C206.442 251.817 192.26 237.38 174.766 237.38C157.272 237.38 143.09 251.817 143.09 269.626C143.09 287.435 157.272 301.872 174.766 301.872Z" fill="#F9F9F9"/>
<path d="M219.325 261.427C236.819 261.427 251.001 246.99 251.001 229.181C251.001 211.372 236.819 196.935 219.325 196.935C201.831 196.935 187.649 211.372 187.649 229.181C187.649 246.99 201.831 261.427 219.325 261.427Z" fill="#F9F9F9"/>
<path d="M219.325 309.524C236.819 309.524 251.001 295.087 251.001 277.278C251.001 259.469 236.819 245.032 219.325 245.032C201.831 245.032 187.649 259.469 187.649 277.278C187.649 295.087 201.831 309.524 219.325 309.524Z" fill="#F9F9F9"/>
<path d="M92.3172 290.212C109.811 290.212 123.993 275.775 123.993 257.966C123.993 240.157 109.811 225.72 92.3172 225.72C74.823 225.72 60.6412 240.157 60.6412 257.966C60.6412 275.775 74.823 290.212 92.3172 290.212Z" fill="#F9F9F9"/>
</g>
<g filter="url(#filter15_d)">
<path d="M453.972 238.947C476.827 238.947 495.354 220.588 495.354 197.942C495.354 175.296 476.827 156.937 453.972 156.937C431.117 156.937 412.589 175.296 412.589 197.942C412.589 220.588 431.117 238.947 453.972 238.947Z" fill="#7D7D7D"/>
<path d="M466.386 300.106C489.132 300.106 507.571 281.747 507.571 259.101C507.571 236.455 489.132 218.096 466.386 218.096C443.64 218.096 425.201 236.455 425.201 259.101C425.201 281.747 443.64 300.106 466.386 300.106Z" fill="#7D7D7D"/>
<path d="M486.092 236.147C508.838 236.147 527.277 217.685 527.277 194.911C527.277 172.137 508.838 153.675 486.092 153.675C463.346 153.675 444.907 172.137 444.907 194.911C444.907 217.685 463.346 236.147 486.092 236.147Z" fill="#7D7D7D"/>
<path d="M532.204 290.376C554.95 290.376 573.389 272.017 573.389 249.371C573.389 226.725 554.95 208.366 532.204 208.366C509.458 208.366 491.019 226.725 491.019 249.371C491.019 272.017 509.458 290.376 532.204 290.376Z" fill="#7D7D7D"/>
<path d="M568.857 244.759C591.603 244.759 610.042 226.4 610.042 203.754C610.042 181.108 591.603 162.749 568.857 162.749C546.111 162.749 527.672 181.108 527.672 203.754C527.672 226.4 546.111 244.759 568.857 244.759Z" fill="#7D7D7D"/>
<path d="M590.14 300.106C612.886 300.106 631.325 281.747 631.325 259.101C631.325 236.455 612.886 218.096 590.14 218.096C567.394 218.096 548.955 236.455 548.955 259.101C548.955 281.747 567.394 300.106 590.14 300.106Z" fill="#7D7D7D"/>
<path d="M425.004 275.55C447.75 275.55 466.189 257.191 466.189 234.545C466.189 211.899 447.75 193.54 425.004 193.54C402.258 193.54 383.819 211.899 383.819 234.545C383.819 257.191 402.258 275.55 425.004 275.55Z" fill="#7D7D7D"/>
</g>
<g filter="url(#filter16_dd)">
<path d="M904.646 153.446C927.501 153.446 946.029 135.087 946.029 112.441C946.029 89.7948 927.501 71.4364 904.646 71.4364C881.791 71.4364 863.264 89.7948 863.264 112.441C863.264 135.087 881.791 153.446 904.646 153.446Z" fill="#7D7D7D"/>
<path d="M917.061 214.606C939.807 214.606 958.247 196.247 958.247 173.601C958.247 150.955 939.807 132.596 917.061 132.596C894.315 132.596 875.876 150.955 875.876 173.601C875.876 196.247 894.315 214.606 917.061 214.606Z" fill="#7D7D7D"/>
<path d="M966.326 159.469C989.072 159.469 1007.51 141.007 1007.51 118.233C1007.51 95.4588 989.072 76.9967 966.326 76.9967C943.58 76.9967 925.141 95.4588 925.141 118.233C925.141 141.007 943.58 159.469 966.326 159.469Z" fill="#7D7D7D"/>
<path d="M982.879 204.876C1005.63 204.876 1024.06 186.517 1024.06 163.871C1024.06 141.225 1005.63 122.866 982.879 122.866C960.133 122.866 941.694 141.225 941.694 163.871C941.694 186.517 960.133 204.876 982.879 204.876Z" fill="#7D7D7D"/>
<path d="M1040.81 153.446C1063.56 153.446 1082 135.087 1082 112.441C1082 89.7948 1063.56 71.4364 1040.81 71.4364C1018.06 71.4364 999.625 89.7948 999.625 112.441C999.625 135.087 1018.06 153.446 1040.81 153.446Z" fill="#7D7D7D"/>
<path d="M1040.81 214.606C1063.56 214.606 1082 196.247 1082 173.601C1082 150.955 1063.56 132.596 1040.81 132.596C1018.06 132.596 999.625 150.955 999.625 173.601C999.625 196.247 1018.06 214.606 1040.81 214.606Z" fill="#7D7D7D"/>
<path d="M875.679 190.049C898.425 190.049 916.864 171.69 916.864 149.044C916.864 126.398 898.425 108.039 875.679 108.039C852.933 108.039 834.494 126.398 834.494 149.044C834.494 171.69 852.933 190.049 875.679 190.049Z" fill="#7D7D7D"/>
</g>
<g filter="url(#filter17_d)">
<path d="M197.4 237.245C220.255 237.245 238.782 218.886 238.782 196.24C238.782 173.594 220.255 155.235 197.4 155.235C174.545 155.235 156.017 173.594 156.017 196.24C156.017 218.886 174.545 237.245 197.4 237.245Z" fill="#7D7D7D"/>
<path d="M209.815 298.405C232.561 298.405 251 280.046 251 257.4C251 234.754 232.561 216.395 209.815 216.395C187.069 216.395 168.63 234.754 168.63 257.4C168.63 280.046 187.069 298.405 209.815 298.405Z" fill="#7D7D7D"/>
<path d="M273.761 258.6C306.901 258.6 333.766 232.319 333.766 199.899C333.766 167.479 306.901 141.198 273.761 141.198C240.621 141.198 213.756 167.479 213.756 199.899C213.756 232.319 240.621 258.6 273.761 258.6Z" fill="#7D7D7D"/>
<path d="M275.633 288.675C298.379 288.675 316.818 270.316 316.818 247.67C316.818 225.024 298.379 206.665 275.633 206.665C252.887 206.665 234.448 225.024 234.448 247.67C234.448 270.316 252.887 288.675 275.633 288.675Z" fill="#7D7D7D"/>
<path d="M333.568 237.245C356.314 237.245 374.753 218.886 374.753 196.24C374.753 173.594 356.314 155.235 333.568 155.235C310.822 155.235 292.383 173.594 292.383 196.24C292.383 218.886 310.822 237.245 333.568 237.245Z" fill="#7D7D7D"/>
<path d="M333.568 298.405C356.314 298.405 374.753 280.046 374.753 257.4C374.753 234.754 356.314 216.395 333.568 216.395C310.822 216.395 292.383 234.754 292.383 257.4C292.383 280.046 310.822 298.405 333.568 298.405Z" fill="#7D7D7D"/>
<path d="M168.433 273.848C191.179 273.848 209.618 255.489 209.618 232.843C209.618 210.197 191.179 191.838 168.433 191.838C145.687 191.838 127.248 210.197 127.248 232.843C127.248 255.489 145.687 273.848 168.433 273.848Z" fill="#7D7D7D"/>
</g>
<g filter="url(#filter18_d)">
<path d="M596.866 282.941C619.794 282.941 638.38 265.176 638.38 243.263C638.38 221.35 619.794 203.585 596.866 203.585C573.938 203.585 555.352 221.35 555.352 243.263C555.352 265.176 573.938 282.941 596.866 282.941Z" fill="#C5C5C5"/>
<path d="M631.653 351C654.472 351 672.97 333.235 672.97 311.322C672.97 289.409 654.472 271.644 631.653 271.644C608.834 271.644 590.336 289.409 590.336 311.322C590.336 333.235 608.834 351 631.653 351Z" fill="#C5C5C5"/>
<path d="M658.742 288.769C681.561 288.769 700.059 270.904 700.059 248.867C700.059 226.83 681.561 208.965 658.742 208.965C635.923 208.965 617.425 226.83 617.425 248.867C617.425 270.904 635.923 288.769 658.742 288.769Z" fill="#C5C5C5"/>
<path d="M675.348 332.706C698.167 332.706 716.665 314.941 716.665 293.028C716.665 271.115 698.167 253.35 675.348 253.35C652.529 253.35 634.031 271.115 634.031 293.028C634.031 314.941 652.529 332.706 675.348 332.706Z" fill="#C5C5C5"/>
<path d="M733.468 282.941C756.287 282.941 774.785 265.176 774.785 243.263C774.785 221.35 756.287 203.585 733.468 203.585C710.649 203.585 692.151 221.35 692.151 243.263C692.151 265.176 710.649 282.941 733.468 282.941Z" fill="#C5C5C5"/>
<path d="M733.468 342.121C756.287 342.121 774.785 324.356 774.785 302.443C774.785 280.53 756.287 262.765 733.468 262.765C710.649 262.765 692.151 280.53 692.151 302.443C692.151 324.356 710.649 342.121 733.468 342.121Z" fill="#C5C5C5"/>
<path d="M567.806 318.359C590.625 318.359 609.123 300.594 609.123 278.681C609.123 256.768 590.625 239.003 567.806 239.003C544.988 239.003 526.489 256.768 526.489 278.681C526.489 300.594 544.988 318.359 567.806 318.359Z" fill="#C5C5C5"/>
</g>
<g filter="url(#filter19_d)">
<path d="M680.222 222.822C703.15 222.822 721.736 205.057 721.736 183.144C721.736 161.231 703.15 143.466 680.222 143.466C657.294 143.466 638.708 161.231 638.708 183.144C638.708 205.057 657.294 222.822 680.222 222.822Z" fill="#DADADA"/>
<path d="M692.677 282.002C715.496 282.002 733.994 264.237 733.994 242.324C733.994 220.411 715.496 202.646 692.677 202.646C669.858 202.646 651.36 220.411 651.36 242.324C651.36 264.237 669.858 282.002 692.677 282.002Z" fill="#DADADA"/>
<path d="M713.827 211.478C736.646 211.478 755.144 193.713 755.144 171.8C755.144 149.887 736.646 132.122 713.827 132.122C691.008 132.122 672.51 149.887 672.51 171.8C672.51 193.713 691.008 211.478 713.827 211.478Z" fill="#DADADA"/>
<path d="M742.098 228.65C764.917 228.65 783.415 210.785 783.415 188.748C783.415 166.711 764.917 148.846 742.098 148.846C719.279 148.846 700.781 166.711 700.781 188.748C700.781 210.785 719.279 228.65 742.098 228.65Z" fill="#DADADA"/>
<path d="M758.704 272.587C781.523 272.587 800.021 254.822 800.021 232.909C800.021 210.996 781.523 193.231 758.704 193.231C735.885 193.231 717.387 210.996 717.387 232.909C717.387 254.822 735.885 272.587 758.704 272.587Z" fill="#DADADA"/>
<path d="M774.719 228.493C797.538 228.493 816.036 210.728 816.036 188.815C816.036 166.902 797.538 149.137 774.719 149.137C751.9 149.137 733.402 166.902 733.402 188.815C733.402 210.728 751.9 228.493 774.719 228.493Z" fill="#DADADA"/>
<path d="M816.824 282.002C839.643 282.002 858.141 264.237 858.141 242.324C858.141 220.411 839.643 202.646 816.824 202.646C794.005 202.646 775.507 220.411 775.507 242.324C775.507 264.237 794.005 282.002 816.824 282.002Z" fill="#DADADA"/>
<path d="M651.162 258.24C673.981 258.24 692.479 240.475 692.479 218.562C692.479 196.649 673.981 178.884 651.162 178.884C628.343 178.884 609.845 196.649 609.845 218.562C609.845 240.475 628.343 258.24 651.162 258.24Z" fill="#DADADA"/>
</g>
<g filter="url(#filter20_d)">
<path d="M375.766 278.404C398.694 278.404 417.28 260.639 417.28 238.726C417.28 216.813 398.694 199.048 375.766 199.048C352.838 199.048 334.252 216.813 334.252 238.726C334.252 260.639 352.838 278.404 375.766 278.404Z" fill="#C5C5C5"/>
<path d="M388.22 337.584C411.039 337.584 429.537 319.819 429.537 297.906C429.537 275.993 411.039 258.228 388.22 258.228C365.402 258.228 346.903 275.993 346.903 297.906C346.903 319.819 365.402 337.584 388.22 337.584Z" fill="#C5C5C5"/>
<path d="M437.642 284.232C460.461 284.232 478.959 266.367 478.959 244.33C478.959 222.293 460.461 204.428 437.642 204.428C414.824 204.428 396.325 222.293 396.325 244.33C396.325 266.367 414.824 284.232 437.642 284.232Z" fill="#C5C5C5"/>
<path d="M447.797 345.329C470.616 345.329 489.114 327.564 489.114 305.651C489.114 283.738 470.616 265.973 447.797 265.973C424.978 265.973 406.48 283.738 406.48 305.651C406.48 327.564 424.978 345.329 447.797 345.329Z" fill="#C5C5C5"/>
<path d="M496.865 297.687C519.684 297.687 538.182 279.922 538.182 258.009C538.182 236.096 519.684 218.331 496.865 218.331C474.046 218.331 455.548 236.096 455.548 258.009C455.548 279.922 474.046 297.687 496.865 297.687Z" fill="#C5C5C5"/>
<path d="M512.367 337.584C535.186 337.584 553.684 319.819 553.684 297.906C553.684 275.993 535.186 258.228 512.367 258.228C489.548 258.228 471.05 275.993 471.05 297.906C471.05 319.819 489.548 337.584 512.367 337.584Z" fill="#C5C5C5"/>
<path d="M346.706 313.822C369.525 313.822 388.023 296.057 388.023 274.144C388.023 252.231 369.525 234.466 346.706 234.466C323.887 234.466 305.389 252.231 305.389 274.144C305.389 296.057 323.887 313.822 346.706 313.822Z" fill="#C5C5C5"/>
</g>
<path d="M417.5 276C445.943 276 469 252.719 469 224C469 195.281 445.943 172 417.5 172C389.057 172 366 195.281 366 224C366 252.719 389.057 276 417.5 276Z" fill="#C4C4C4"/>
<defs>
<filter id="filter0_dd" x="416.19" y="19.1974" width="347.507" height="243.169" filterUnits="userSpaceOnUse" color-interpolation-filters="sRGB">
<feFlood flood-opacity="0" result="BackgroundImageFix"/>
<feColorMatrix in="SourceAlpha" type="matrix" values="0 0 0 0 0 0 0 0 0 0 0 0 0 0 0 0 0 0 127 0"/>
<feOffset dy="4"/>
<feGaussianBlur stdDeviation="25"/>
<feColorMatrix type="matrix" values="0 0 0 0 1 0 0 0 0 1 0 0 0 0 1 0 0 0 0.8 0"/>
<feBlend mode="normal" in2="BackgroundImageFix" result="effect1_dropShadow"/>
<feColorMatrix in="SourceAlpha" type="matrix" values="0 0 0 0 0 0 0 0 0 0 0 0 0 0 0 0 0 0 127 0"/>
<feOffset dy="4"/>
<feGaussianBlur stdDeviation="2"/>
<feColorMatrix type="matrix" values="0 0 0 0 0 0 0 0 0 0 0 0 0 0 0 0 0 0 0.25 0"/>
<feBlend mode="normal" in2="effect1_dropShadow" result="effect2_dropShadow"/>
<feBlend mode="normal" in="SourceGraphic" in2="effect2_dropShadow" result="shape"/>
</filter>
<filter id="filter1_d" x="754.823" y="172.958" width="255.507" height="151.169" filterUnits="userSpaceOnUse" color-interpolation-filters="sRGB">
<feFlood flood-opacity="0" result="BackgroundImageFix"/>
<feColorMatrix in="SourceAlpha" type="matrix" values="0 0 0 0 0 0 0 0 0 0 0 0 0 0 0 0 0 0 127 0"/>
<feOffset dy="4"/>
<feGaussianBlur stdDeviation="2"/>
<feColorMatrix type="matrix" values="0 0 0 0 0 0 0 0 0 0 0 0 0 0 0 0 0 0 0.25 0"/>
<feBlend mode="normal" in2="BackgroundImageFix" result="effect1_dropShadow"/>
<feBlend mode="normal" in="SourceGraphic" in2="effect1_dropShadow" result="shape"/>
</filter>
<filter id="filter2_dd" x="159.619" y="11.2575" width="354.403" height="249.407" filterUnits="userSpaceOnUse" color-interpolation-filters="sRGB">
<feFlood flood-opacity="0" result="BackgroundImageFix"/>
<feColorMatrix in="SourceAlpha" type="matrix" values="0 0 0 0 0 0 0 0 0 0 0 0 0 0 0 0 0 0 127 0"/>
<feOffset dy="4"/>
<feGaussianBlur stdDeviation="25"/>
<feColorMatrix type="matrix" values="0 0 0 0 1 0 0 0 0 1 0 0 0 0 1 0 0 0 0.8 0"/>
<feBlend mode="normal" in2="BackgroundImageFix" result="effect1_dropShadow"/>
<feColorMatrix in="SourceAlpha" type="matrix" values="0 0 0 0 0 0 0 0 0 0 0 0 0 0 0 0 0 0 127 0"/>
<feOffset dy="4"/>
<feGaussianBlur stdDeviation="2"/>
<feColorMatrix type="matrix" values="0 0 0 0 0 0 0 0 0 0 0 0 0 0 0 0 0 0 0.25 0"/>
<feBlend mode="normal" in2="effect1_dropShadow" result="effect2_dropShadow"/>
<feBlend mode="normal" in="SourceGraphic" in2="effect2_dropShadow" result="shape"/>
</filter>
<filter id="filter3_d" x="564.267" y="156.937" width="255.506" height="151.168" filterUnits="userSpaceOnUse" color-interpolation-filters="sRGB">
<feFlood flood-opacity="0" result="BackgroundImageFix"/>
<feColorMatrix in="SourceAlpha" type="matrix" values="0 0 0 0 0 0 0 0 0 0 0 0 0 0 0 0 0 0 127 0"/>
<feOffset dy="4"/>
<feGaussianBlur stdDeviation="2"/>
<feColorMatrix type="matrix" values="0 0 0 0 0 0 0 0 0 0 0 0 0 0 0 0 0 0 0.25 0"/>
<feBlend mode="normal" in2="BackgroundImageFix" result="effect1_dropShadow"/>
<feBlend mode="normal" in="SourceGraphic" in2="effect1_dropShadow" result="shape"/>
</filter>
<filter id="filter4_d" x="307.695" y="155.235" width="255.507" height="151.169" filterUnits="userSpaceOnUse" color-interpolation-filters="sRGB">
<feFlood flood-opacity="0" result="BackgroundImageFix"/>
<feColorMatrix in="SourceAlpha" type="matrix" values="0 0 0 0 0 0 0 0 0 0 0 0 0 0 0 0 0 0 127 0"/>
<feOffset dy="4"/>
<feGaussianBlur stdDeviation="2"/>
<feColorMatrix type="matrix" values="0 0 0 0 0 0 0 0 0 0 0 0 0 0 0 0 0 0 0.25 0"/>
<feBlend mode="normal" in2="BackgroundImageFix" result="effect1_dropShadow"/>
<feBlend mode="normal" in="SourceGraphic" in2="effect1_dropShadow" result="shape"/>
</filter>
<filter id="filter5_dd" x="448.507" y="55.8006" width="290.359" height="212.589" filterUnits="userSpaceOnUse" color-interpolation-filters="sRGB">
<feFlood flood-opacity="0" result="BackgroundImageFix"/>
<feColorMatrix in="SourceAlpha" type="matrix" values="0 0 0 0 0 0 0 0 0 0 0 0 0 0 0 0 0 0 127 0"/>
<feOffset dy="4"/>
<feGaussianBlur stdDeviation="25"/>
<feColorMatrix type="matrix" values="0 0 0 0 1 0 0 0 0 1 0 0 0 0 1 0 0 0 0.8 0"/>
<feBlend mode="normal" in2="BackgroundImageFix" result="effect1_dropShadow"/>
<feColorMatrix in="SourceAlpha" type="matrix" values="0 0 0 0 0 0 0 0 0 0 0 0 0 0 0 0 0 0 127 0"/>
<feOffset dy="4"/>
<feGaussianBlur stdDeviation="2"/>
<feColorMatrix type="matrix" values="0 0 0 0 0 0 0 0 0 0 0 0 0 0 0 0 0 0 0.25 0"/>
<feBlend mode="normal" in2="effect1_dropShadow" result="effect2_dropShadow"/>
<feBlend mode="normal" in="SourceGraphic" in2="effect2_dropShadow" result="shape"/>
</filter>
<filter id="filter6_d" x="787.141" y="209.561" width="188.506" height="131.337" filterUnits="userSpaceOnUse" color-interpolation-filters="sRGB">
<feFlood flood-opacity="0" result="BackgroundImageFix"/>
<feColorMatrix in="SourceAlpha" type="matrix" values="0 0 0 0 0 0 0 0 0 0 0 0 0 0 0 0 0 0 127 0"/>
<feOffset dy="4"/>
<feGaussianBlur stdDeviation="2"/>
<feColorMatrix type="matrix" values="0 0 0 0 0 0 0 0 0 0 0 0 0 0 0 0 0 0 0.25 0"/>
<feBlend mode="normal" in2="BackgroundImageFix" result="effect1_dropShadow"/>
<feBlend mode="normal" in="SourceGraphic" in2="effect1_dropShadow" result="shape"/>
</filter>
<filter id="filter7_dd" x="191.936" y="54.0996" width="290.359" height="212.589" filterUnits="userSpaceOnUse" color-interpolation-filters="sRGB">
<feFlood flood-opacity="0" result="BackgroundImageFix"/>
<feColorMatrix in="SourceAlpha" type="matrix" values="0 0 0 0 0 0 0 0 0 0 0 0 0 0 0 0 0 0 127 0"/>
<feOffset dy="4"/>
<feGaussianBlur stdDeviation="25"/>
<feColorMatrix type="matrix" values="0 0 0 0 1 0 0 0 0 1 0 0 0 0 1 0 0 0 0.8 0"/>
<feBlend mode="normal" in2="BackgroundImageFix" result="effect1_dropShadow"/>
<feColorMatrix in="SourceAlpha" type="matrix" values="0 0 0 0 0 0 0 0 0 0 0 0 0 0 0 0 0 0 127 0"/>
<feOffset dy="4"/>
<feGaussianBlur stdDeviation="2"/>
<feColorMatrix type="matrix" values="0 0 0 0 0 0 0 0 0 0 0 0 0 0 0 0 0 0 0.25 0"/>
<feBlend mode="normal" in2="effect1_dropShadow" result="effect2_dropShadow"/>
<feBlend mode="normal" in="SourceGraphic" in2="effect2_dropShadow" result="shape"/>
</filter>
<filter id="filter8_dd" x="256.571" y="46.9884" width="290.36" height="220.475" filterUnits="userSpaceOnUse" color-interpolation-filters="sRGB">
<feFlood flood-opacity="0" result="BackgroundImageFix"/>
<feColorMatrix in="SourceAlpha" type="matrix" values="0 0 0 0 0 0 0 0 0 0 0 0 0 0 0 0 0 0 127 0"/>
<feOffset dy="4"/>
<feGaussianBlur stdDeviation="25"/>
<feColorMatrix type="matrix" values="0 0 0 0 1 0 0 0 0 1 0 0 0 0 1 0 0 0 0.8 0"/>
<feBlend mode="normal" in2="BackgroundImageFix" result="effect1_dropShadow"/>
<feColorMatrix in="SourceAlpha" type="matrix" values="0 0 0 0 0 0 0 0 0 0 0 0 0 0 0 0 0 0 127 0"/>
<feOffset dy="4"/>
<feGaussianBlur stdDeviation="2"/>
<feColorMatrix type="matrix" values="0 0 0 0 0 0 0 0 0 0 0 0 0 0 0 0 0 0 0.25 0"/>
<feBlend mode="normal" in2="effect1_dropShadow" result="effect2_dropShadow"/>
<feBlend mode="normal" in="SourceGraphic" in2="effect2_dropShadow" result="shape"/>
</filter>
<filter id="filter9_dd" x="0" y="53.1726" width="290.359" height="212.589" filterUnits="userSpaceOnUse" color-interpolation-filters="sRGB">
<feFlood flood-opacity="0" result="BackgroundImageFix"/>
<feColorMatrix in="SourceAlpha" type="matrix" values="0 0 0 0 0 0 0 0 0 0 0 0 0 0 0 0 0 0 127 0"/>
<feOffset dy="4"/>
<feGaussianBlur stdDeviation="25"/>
<feColorMatrix type="matrix" values="0 0 0 0 1 0 0 0 0 1 0 0 0 0 1 0 0 0 0.8 0"/>
<feBlend mode="normal" in2="BackgroundImageFix" result="effect1_dropShadow"/>
<feColorMatrix in="SourceAlpha" type="matrix" values="0 0 0 0 0 0 0 0 0 0 0 0 0 0 0 0 0 0 127 0"/>
<feOffset dy="4"/>
<feGaussianBlur stdDeviation="2"/>
<feColorMatrix type="matrix" values="0 0 0 0 0 0 0 0 0 0 0 0 0 0 0 0 0 0 0.25 0"/>
<feBlend mode="normal" in2="effect1_dropShadow" result="effect2_dropShadow"/>
<feBlend mode="normal" in="SourceGraphic" in2="effect2_dropShadow" result="shape"/>
</filter>
<filter id="filter10_d" x="688.019" y="146.281" width="198.36" height="120.589" filterUnits="userSpaceOnUse" color-interpolation-filters="sRGB">
<feFlood flood-opacity="0" result="BackgroundImageFix"/>
<feColorMatrix in="SourceAlpha" type="matrix" values="0 0 0 0 0 0 0 0 0 0 0 0 0 0 0 0 0 0 127 0"/>
<feOffset dy="4"/>
<feGaussianBlur stdDeviation="2"/>
<feColorMatrix type="matrix" values="0 0 0 0 0 0 0 0 0 0 0 0 0 0 0 0 0 0 0.25 0"/>
<feBlend mode="normal" in2="BackgroundImageFix" result="effect1_dropShadow"/>
<feBlend mode="normal" in="SourceGraphic" in2="effect1_dropShadow" result="shape"/>
</filter>
<filter id="filter11_dd" x="622.51" y="1.61569" width="348.295" height="257.252" filterUnits="userSpaceOnUse" color-interpolation-filters="sRGB">
<feFlood flood-opacity="0" result="BackgroundImageFix"/>
<feColorMatrix in="SourceAlpha" type="matrix" values="0 0 0 0 0 0 0 0 0 0 0 0 0 0 0 0 0 0 127 0"/>
<feOffset dy="4"/>
<feGaussianBlur stdDeviation="25"/>
<feColorMatrix type="matrix" values="0 0 0 0 1 0 0 0 0 1 0 0 0 0 1 0 0 0 0.8 0"/>
<feBlend mode="normal" in2="BackgroundImageFix" result="effect1_dropShadow"/>
<feColorMatrix in="SourceAlpha" type="matrix" values="0 0 0 0 0 0 0 0 0 0 0 0 0 0 0 0 0 0 127 0"/>
<feOffset dy="4"/>
<feGaussianBlur stdDeviation="2"/>
<feColorMatrix type="matrix" values="0 0 0 0 0 0 0 0 0 0 0 0 0 0 0 0 0 0 0.25 0"/>
<feBlend mode="normal" in2="effect1_dropShadow" result="effect2_dropShadow"/>
<feBlend mode="normal" in="SourceGraphic" in2="effect2_dropShadow" result="shape"/>
</filter>
<filter id="filter12_d" x="431.448" y="144.579" width="198.359" height="120.59" filterUnits="userSpaceOnUse" color-interpolation-filters="sRGB">
<feFlood flood-opacity="0" result="BackgroundImageFix"/>
<feColorMatrix in="SourceAlpha" type="matrix" values="0 0 0 0 0 0 0 0 0 0 0 0 0 0 0 0 0 0 127 0"/>
<feOffset dy="4"/>
<feGaussianBlur stdDeviation="2"/>
<feColorMatrix type="matrix" values="0 0 0 0 0 0 0 0 0 0 0 0 0 0 0 0 0 0 0.25 0"/>
<feBlend mode="normal" in2="BackgroundImageFix" result="effect1_dropShadow"/>
<feBlend mode="normal" in="SourceGraphic" in2="effect1_dropShadow" result="shape"/>
</filter>
<filter id="filter13_d" x="313.213" y="198.637" width="198.359" height="120.589" filterUnits="userSpaceOnUse" color-interpolation-filters="sRGB">
<feFlood flood-opacity="0" result="BackgroundImageFix"/>
<feColorMatrix in="SourceAlpha" type="matrix" values="0 0 0 0 0 0 0 0 0 0 0 0 0 0 0 0 0 0 127 0"/>
<feOffset dy="4"/>
<feGaussianBlur stdDeviation="2"/>
<feColorMatrix type="matrix" values="0 0 0 0 0 0 0 0 0 0 0 0 0 0 0 0 0 0 0.25 0"/>
<feBlend mode="normal" in2="BackgroundImageFix" result="effect1_dropShadow"/>
<feBlend mode="normal" in="SourceGraphic" in2="effect1_dropShadow" result="shape"/>
</filter>
<filter id="filter14_d" x="56.6412" y="196.935" width="198.36" height="120.59" filterUnits="userSpaceOnUse" color-interpolation-filters="sRGB">
<feFlood flood-opacity="0" result="BackgroundImageFix"/>
<feColorMatrix in="SourceAlpha" type="matrix" values="0 0 0 0 0 0 0 0 0 0 0 0 0 0 0 0 0 0 127 0"/>
<feOffset dy="4"/>
<feGaussianBlur stdDeviation="2"/>
<feColorMatrix type="matrix" values="0 0 0 0 0 0 0 0 0 0 0 0 0 0 0 0 0 0 0.25 0"/>
<feBlend mode="normal" in2="BackgroundImageFix" result="effect1_dropShadow"/>
<feBlend mode="normal" in="SourceGraphic" in2="effect1_dropShadow" result="shape"/>
</filter>
<filter id="filter15_d" x="379.819" y="153.675" width="255.507" height="154.431" filterUnits="userSpaceOnUse" color-interpolation-filters="sRGB">
<feFlood flood-opacity="0" result="BackgroundImageFix"/>
<feColorMatrix in="SourceAlpha" type="matrix" values="0 0 0 0 0 0 0 0 0 0 0 0 0 0 0 0 0 0 127 0"/>
<feOffset dy="4"/>
<feGaussianBlur stdDeviation="2"/>
<feColorMatrix type="matrix" values="0 0 0 0 0 0 0 0 0 0 0 0 0 0 0 0 0 0 0.25 0"/>
<feBlend mode="normal" in2="BackgroundImageFix" result="effect1_dropShadow"/>
<feBlend mode="normal" in="SourceGraphic" in2="effect1_dropShadow" result="shape"/>
</filter>
<filter id="filter16_dd" x="784.494" y="25.4364" width="347.502" height="243.169" filterUnits="userSpaceOnUse" color-interpolation-filters="sRGB">
<feFlood flood-opacity="0" result="BackgroundImageFix"/>
<feColorMatrix in="SourceAlpha" type="matrix" values="0 0 0 0 0 0 0 0 0 0 0 0 0 0 0 0 0 0 127 0"/>
<feOffset dy="4"/>
<feGaussianBlur stdDeviation="25"/>
<feColorMatrix type="matrix" values="0 0 0 0 1 0 0 0 0 1 0 0 0 0 1 0 0 0 0.8 0"/>
<feBlend mode="normal" in2="BackgroundImageFix" result="effect1_dropShadow"/>
<feColorMatrix in="SourceAlpha" type="matrix" values="0 0 0 0 0 0 0 0 0 0 0 0 0 0 0 0 0 0 127 0"/>
<feOffset dy="4"/>
<feGaussianBlur stdDeviation="2"/>
<feColorMatrix type="matrix" values="0 0 0 0 0 0 0 0 0 0 0 0 0 0 0 0 0 0 0.25 0"/>
<feBlend mode="normal" in2="effect1_dropShadow" result="effect2_dropShadow"/>
<feBlend mode="normal" in="SourceGraphic" in2="effect2_dropShadow" result="shape"/>
</filter>
<filter id="filter17_d" x="123.248" y="141.198" width="255.506" height="165.207" filterUnits="userSpaceOnUse" color-interpolation-filters="sRGB">
<feFlood flood-opacity="0" result="BackgroundImageFix"/>
<feColorMatrix in="SourceAlpha" type="matrix" values="0 0 0 0 0 0 0 0 0 0 0 0 0 0 0 0 0 0 127 0"/>
<feOffset dy="4"/>
<feGaussianBlur stdDeviation="2"/>
<feColorMatrix type="matrix" values="0 0 0 0 0 0 0 0 0 0 0 0 0 0 0 0 0 0 0.25 0"/>
<feBlend mode="normal" in2="BackgroundImageFix" result="effect1_dropShadow"/>
<feBlend mode="normal" in="SourceGraphic" in2="effect1_dropShadow" result="shape"/>
</filter>
<filter id="filter18_d" x="522.489" y="203.585" width="256.295" height="155.414" filterUnits="userSpaceOnUse" color-interpolation-filters="sRGB">
<feFlood flood-opacity="0" result="BackgroundImageFix"/>
<feColorMatrix in="SourceAlpha" type="matrix" values="0 0 0 0 0 0 0 0 0 0 0 0 0 0 0 0 0 0 127 0"/>
<feOffset dy="4"/>
<feGaussianBlur stdDeviation="2"/>
<feColorMatrix type="matrix" values="0 0 0 0 0 0 0 0 0 0 0 0 0 0 0 0 0 0 0.25 0"/>
<feBlend mode="normal" in2="BackgroundImageFix" result="effect1_dropShadow"/>
<feBlend mode="normal" in="SourceGraphic" in2="effect1_dropShadow" result="shape"/>
</filter>
<filter id="filter19_d" x="605.845" y="132.122" width="256.295" height="157.879" filterUnits="userSpaceOnUse" color-interpolation-filters="sRGB">
<feFlood flood-opacity="0" result="BackgroundImageFix"/>
<feColorMatrix in="SourceAlpha" type="matrix" values="0 0 0 0 0 0 0 0 0 0 0 0 0 0 0 0 0 0 127 0"/>
<feOffset dy="4"/>
<feGaussianBlur stdDeviation="2"/>
<feColorMatrix type="matrix" values="0 0 0 0 0 0 0 0 0 0 0 0 0 0 0 0 0 0 0.25 0"/>
<feBlend mode="normal" in2="BackgroundImageFix" result="effect1_dropShadow"/>
<feBlend mode="normal" in="SourceGraphic" in2="effect1_dropShadow" result="shape"/>
</filter>
<filter id="filter20_d" x="301.389" y="199.048" width="256.294" height="154.28" filterUnits="userSpaceOnUse" color-interpolation-filters="sRGB">
<feFlood flood-opacity="0" result="BackgroundImageFix"/>
<feColorMatrix in="SourceAlpha" type="matrix" values="0 0 0 0 0 0 0 0 0 0 0 0 0 0 0 0 0 0 127 0"/>
<feOffset dy="4"/>
<feGaussianBlur stdDeviation="2"/>
<feColorMatrix type="matrix" values="0 0 0 0 0 0 0 0 0 0 0 0 0 0 0 0 0 0 0.25 0"/>
<feBlend mode="normal" in2="BackgroundImageFix" result="effect1_dropShadow"/>
<feBlend mode="normal" in="SourceGraphic" in2="effect1_dropShadow" result="shape"/>
</filter>
</defs>
</svg>
